<svg width="1106" height="210" viewBox="0 0 1106 210" fill="none" xmlns="http://www.w3.org/2000/svg">
<path d="M302.45 162.334C294.821 162.334 287.643 160.881 280.918 157.975C274.192 155.069 268.319 151.11 263.3 146.099C258.381 141.089 254.466 135.276 251.556 128.662C248.645 121.948 247.189 114.783 247.189 107.167C247.189 99.5503 248.645 92.4352 251.556 85.8211C254.466 79.1068 258.381 73.2443 263.3 68.2336C268.319 63.2229 274.192 59.2645 280.918 56.3583C287.643 53.4521 294.821 51.999 302.45 51.999C307.971 51.999 313.241 52.7005 318.26 54.1035C323.38 55.5065 328.048 57.5108 332.264 60.1163C336.581 62.6216 340.446 65.6782 343.859 69.2858C347.272 72.7933 350.132 76.7518 352.441 81.1611L331.361 92.5855C328.35 87.174 324.435 82.9149 319.616 79.8083C314.897 76.7016 309.176 75.1483 302.45 75.1483C298.033 75.1483 293.917 76.0002 290.103 77.7038C286.389 79.4074 283.126 81.7624 280.316 84.7688C277.505 87.675 275.296 91.0823 273.69 94.9906C272.084 98.7987 271.281 102.857 271.281 107.167C271.281 111.476 272.084 115.584 273.69 119.493C275.296 123.301 277.505 126.708 280.316 129.715C283.126 132.621 286.389 134.926 290.103 136.629C293.917 138.333 298.033 139.185 302.45 139.185C309.176 139.185 314.897 137.631 319.616 134.525C324.435 131.418 328.35 127.159 331.361 121.748L352.441 133.172C350.132 137.581 347.272 141.59 343.859 145.198C340.446 148.705 336.581 151.762 332.264 154.367C328.048 156.872 323.38 158.827 318.26 160.23C313.241 161.633 307.971 162.334 302.45 162.334Z" fill="white"/>
<path d="M364.48 85.3702H387.217V96.6442C388.422 93.3372 390.63 90.4811 393.843 88.076C397.155 85.6708 400.92 84.4683 405.136 84.4683C406.241 84.4683 407.395 84.5184 408.599 84.6186C409.804 84.7188 411.109 84.9694 412.514 85.3702V108.369C410.808 107.768 409.152 107.317 407.545 107.016C405.939 106.716 404.233 106.565 402.426 106.565C397.507 106.565 393.742 108.269 391.132 111.676C388.523 115.083 387.217 119.493 387.217 124.904V160.53H364.48V85.3702Z" fill="white"/>
<path d="M452.98 162.184C448.061 162.184 443.444 161.132 439.127 159.027C434.911 156.923 431.247 154.117 428.135 150.609C425.023 147.001 422.564 142.843 420.757 138.133C418.951 133.322 418.047 128.261 418.047 122.95C418.047 117.639 418.951 112.628 420.757 107.918C422.564 103.108 425.023 98.949 428.135 95.4416C431.247 91.8339 434.911 88.9778 439.127 86.8733C443.444 84.7688 448.061 83.7166 452.98 83.7166C455.49 83.7166 457.799 84.0172 459.907 84.6185C462.116 85.1196 464.073 85.8211 465.779 86.723C467.586 87.6249 469.092 88.627 470.296 89.7294C471.602 90.8317 472.656 91.884 473.459 92.8861V85.3701H496.196V160.53H473.459V153.014C472.656 154.016 471.602 155.069 470.296 156.171C469.092 157.273 467.586 158.275 465.779 159.177C464.073 160.079 462.116 160.781 459.907 161.282C457.799 161.883 455.49 162.184 452.98 162.184ZM458.1 141.59C463.22 141.59 467.335 139.836 470.448 136.329C473.659 132.821 475.265 128.362 475.265 122.95C475.265 117.539 473.659 113.079 470.448 109.572C467.335 106.064 463.22 104.31 458.1 104.31C452.98 104.31 448.815 106.064 445.602 109.572C442.49 113.079 440.934 117.539 440.934 122.95C440.934 128.362 442.49 132.821 445.602 136.329C448.815 139.836 452.98 141.59 458.1 141.59Z" fill="white"/>
<path d="M558.125 162.184C555.616 162.184 553.257 161.883 551.048 161.282C548.94 160.781 546.982 160.079 545.176 159.177C543.469 158.275 541.963 157.273 540.659 156.171C539.353 155.069 538.35 154.016 537.646 153.014V160.53H514.91V47.79H537.646V92.8861C538.35 91.884 539.353 90.8317 540.659 89.7294C541.963 88.627 543.469 87.6249 545.176 86.723C546.982 85.8211 548.94 85.1196 551.048 84.6185C553.257 84.0172 555.616 83.7166 558.125 83.7166C563.044 83.7166 567.611 84.7688 571.827 86.8733C576.144 88.9778 579.859 91.8339 582.97 95.4416C586.082 98.949 588.541 103.108 590.349 107.918C592.155 112.628 593.058 117.639 593.058 122.95C593.058 128.261 592.155 133.322 590.349 138.133C588.541 142.843 586.082 147.001 582.97 150.609C579.859 154.117 576.144 156.923 571.827 159.027C567.611 161.132 563.044 162.184 558.125 162.184ZM553.005 141.59C558.125 141.59 562.241 139.836 565.352 136.329C568.565 132.821 570.171 128.362 570.171 122.95C570.171 117.539 568.565 113.079 565.352 109.572C562.241 106.064 558.125 104.31 553.005 104.31C547.886 104.31 543.72 106.064 540.507 109.572C537.396 113.079 535.84 117.539 535.84 122.95C535.84 128.362 537.396 132.821 540.507 136.329C543.72 139.836 547.886 141.59 553.005 141.59Z" fill="white"/>
<path d="M683.342 160.53L631.243 94.5396V160.53H607.301V53.8029H627.931L679.878 119.793V53.8029H703.971V160.53H683.342Z" fill="white"/>
<path d="M758.223 162.184C752.702 162.184 747.482 161.282 742.563 159.478C737.745 157.674 733.528 155.069 729.915 151.661C726.301 148.254 723.44 144.145 721.332 139.335C719.224 134.425 718.17 128.963 718.17 122.95C718.17 117.338 719.123 112.177 721.031 107.467C723.039 102.657 725.8 98.4981 729.313 94.9906C732.926 91.4831 737.142 88.7273 741.961 86.723C746.779 84.7187 752.05 83.7166 757.771 83.7166C762.69 83.7166 767.409 84.5183 771.926 86.1217C776.543 87.6249 780.559 89.9298 783.972 93.0364C787.385 96.0428 790.095 99.851 792.102 104.461C794.211 108.97 795.265 114.282 795.265 120.395C795.265 121.397 795.215 122.549 795.115 123.852C795.115 125.055 795.014 126.558 794.813 128.362H740.154C740.857 132.871 743.015 136.228 746.629 138.433C750.243 140.538 754.208 141.59 758.525 141.59C762.942 141.59 766.705 140.738 769.817 139.034C773.03 137.231 775.339 135.226 776.744 133.022L793.608 145.649C790.095 150.659 785.277 154.668 779.153 157.674C773.13 160.681 766.153 162.184 758.223 162.184ZM772.678 113.48C771.674 109.471 769.667 106.615 766.655 104.912C763.644 103.108 760.482 102.206 757.169 102.206C755.462 102.206 753.756 102.406 752.05 102.807C750.343 103.208 748.737 103.859 747.231 104.761C745.726 105.663 744.37 106.816 743.166 108.219C742.061 109.622 741.258 111.376 740.757 113.48H772.678Z" fill="white"/>
<path d="M852.807 162.184C850.298 162.184 847.938 161.883 845.73 161.282C843.623 160.781 841.665 160.079 839.858 159.177C838.152 158.275 836.646 157.273 835.341 156.171C834.035 155.069 833.031 154.016 832.329 153.014V160.53H809.592V47.79H832.329V92.8861C833.031 91.884 834.035 90.8317 835.341 89.7294C836.646 88.627 838.152 87.6249 839.858 86.723C841.665 85.8211 843.623 85.1196 845.73 84.6185C847.938 84.0172 850.298 83.7166 852.807 83.7166C857.726 83.7166 862.293 84.7688 866.51 86.8733C870.827 88.9778 874.541 91.8339 877.652 95.4416C880.765 98.949 883.224 103.108 885.03 107.918C886.838 112.628 887.741 117.639 887.741 122.95C887.741 128.261 886.838 133.322 885.03 138.133C883.224 142.843 880.765 147.001 877.652 150.609C874.541 154.117 870.827 156.923 866.51 159.027C862.293 161.132 857.726 162.184 852.807 162.184ZM847.688 141.59C852.807 141.59 856.924 139.836 860.035 136.329C863.247 132.821 864.854 128.362 864.854 122.95C864.854 117.539 863.247 113.079 860.035 109.572C856.924 106.064 852.807 104.31 847.688 104.31C842.569 104.31 838.402 106.064 835.19 109.572C832.078 113.079 830.522 117.539 830.522 122.95C830.522 128.362 832.078 132.821 835.19 136.329C838.402 139.836 842.569 141.59 847.688 141.59Z" fill="white"/>
<path d="M929.493 162.184C920.157 162.184 913.08 159.077 908.261 152.864C903.444 146.651 901.034 138.433 901.034 128.211V85.3701H923.772V124.303C923.772 129.815 924.624 134.074 926.331 137.08C928.137 140.087 931.15 141.59 935.365 141.59C939.682 141.59 943.095 140.037 945.605 136.93C948.215 133.823 949.52 128.813 949.52 121.898V85.3701H972.257V160.53H949.52V152.864C947.713 155.469 945.153 157.674 941.84 159.478C938.527 161.282 934.412 162.184 929.493 162.184Z" fill="white"/>
<path d="M990.901 47.79H1013.64V160.53H990.901V47.79Z" fill="white"/>
<path d="M1062.78 162.184C1057.86 162.184 1053.24 161.132 1048.93 159.027C1044.72 156.923 1041.05 154.117 1037.94 150.609C1034.83 147.001 1032.37 142.843 1030.56 138.133C1028.75 133.322 1027.85 128.261 1027.85 122.95C1027.85 117.639 1028.75 112.628 1030.56 107.918C1032.37 103.108 1034.83 98.949 1037.94 95.4416C1041.05 91.8339 1044.72 88.9778 1048.93 86.8733C1053.24 84.7688 1057.86 83.7166 1062.78 83.7166C1065.3 83.7166 1067.6 84.0172 1069.71 84.6185C1071.92 85.1196 1073.88 85.8211 1075.58 86.723C1077.39 87.6249 1078.9 88.627 1080.1 89.7294C1081.41 90.8317 1082.46 91.884 1083.26 92.8861V85.3701H1106V160.53H1083.26V153.014C1082.46 154.016 1081.41 155.069 1080.1 156.171C1078.9 157.273 1077.39 158.275 1075.58 159.177C1073.88 160.079 1071.92 160.781 1069.71 161.282C1067.6 161.883 1065.3 162.184 1062.78 162.184ZM1067.9 141.59C1073.02 141.59 1077.14 139.836 1080.25 136.329C1083.46 132.821 1085.07 128.362 1085.07 122.95C1085.07 117.539 1083.46 113.079 1080.25 109.572C1077.14 106.064 1073.02 104.31 1067.9 104.31C1062.78 104.31 1058.61 106.064 1055.41 109.572C1052.29 113.079 1050.74 117.539 1050.74 122.95C1050.74 128.362 1052.29 132.821 1055.41 136.329C1058.61 139.836 1062.78 141.59 1067.9 141.59Z" fill="white"/>
<path fill-rule="evenodd" clip-rule="evenodd" d="M96.6551 54.5855C69.8499 89.8659 70.005 134.941 97.0014 155.264C104.096 160.605 112.339 163.705 121.122 164.732C96.2058 184.934 67.5039 191.203 48.1239 178.045C21.5458 160 22.5648 112.249 50.4001 71.3909C73.6433 37.2729 108.235 18.7491 134.49 24.0724C120.622 30.1953 107.31 40.5609 96.6551 54.5855ZM131.876 99.6433C119.357 111.453 105.049 119.304 92.9692 121.916C100.102 147.367 127.521 149.323 127.521 149.323C127.521 149.323 143.838 145.578 156.159 117.941C166.306 95.1834 165.421 71.6676 155.195 59.7002C154.344 71.2667 145.995 86.3245 131.876 99.6433Z" fill="white"/>
</svg>
